<svg width="29" height="28" viewBox="0 0 29 28" fill="none" xmlns="http://www.w3.org/2000/svg">
  <path d="M24.3957 23.5696V20.083C24.3957 19.1068 24.2522 18.1305 23.6782 17.1542C23.1041 16.178 22.3866 15.3412 21.3821 14.7833C20.3776 14.086 18.225 13.9465 17.2205 13.9465L14.9244 16.3174L15.7855 18.1305V22.3145L14.3504 23.8486L12.9154 22.3145V18.1305L13.9199 16.3174L11.4804 13.9465C10.3323 13.9465 8.17977 14.086 7.17525 14.7833C6.17072 15.3412 5.59671 16.178 5.02269 17.1542C4.44868 18.1305 4.30518 18.9673 4.30518 20.083V23.5696C4.30518 23.5696 8.03627 25.1038 14.3504 25.1038C20.6646 25.1038 24.3957 23.5696 24.3957 23.5696Z" fill="#3F4251" />
  <path d="M14.3504 2.92896C11.6238 2.92896 10.0453 5.43933 10.4758 8.22864C10.9063 11.0179 12.3413 12.9705 14.3504 12.9705C16.3594 12.9705 17.7945 11.0179 18.225 8.22864C18.6555 5.29987 17.077 2.92896 14.3504 2.92896Z" fill="#3F4251" />
</svg>