<svg width="37" height="25" viewBox="0 0 37 25" fill="none" xmlns="http://www.w3.org/2000/svg">
  <path fill-rule="evenodd" clip-rule="evenodd" d="M32.0564 20.4327L23.3956 12.5L32.0564 4.56731L30.8754 3.30529L18.2778 14.8438L5.68017 3.30529L4.49915 4.56731L13.16 12.5L4.49915 20.4327L5.68017 21.6947L14.4394 13.6719L18.2778 17.1875L22.1161 13.6719L30.8754 21.6947L32.0564 20.4327ZM2.9297 0C1.31167 0 0 1.39768 0 3.11572V21.8843C0 23.605 1.30103 25 2.9297 25H33.6259C35.2439 25 36.5556 23.6023 36.5556 21.8843V3.11572C36.5556 1.39496 35.2545 0 33.6259 0H2.9297Z" fill="#CCE5FA" />
</svg>