<svg width="15" height="12" viewBox="0 0 15 12" fill="none" xmlns="http://www.w3.org/2000/svg">
  <path d="M0.459201 1.20027L6.4592 4.96067C6.6608 5.08667 6.9216 5.1464 7.184 5.1464C7.4464 5.1464 7.7072 5.08667 7.9088 4.96067L13.9088 1.20027C14.3 0.9548 14.6696 0 13.952 0H0.416801C-0.300799 0 0.0688013 0.9548 0.459201 1.20027ZM14.0904 3.2564L7.9088 7.01493C7.6368 7.18107 7.4464 7.20067 7.184 7.20067C6.9216 7.20067 6.7312 7.18107 6.4592 7.01493C6.1872 6.8488 0.752801 3.5252 0.308801 3.25547C-0.00319868 3.06507 1.29285e-06 3.28813 1.29285e-06 3.45987V10.2667C1.29285e-06 10.6587 0.452801 11.2 0.800001 11.2H13.6C13.9472 11.2 14.4 10.6587 14.4 10.2667V3.4608C14.4 3.28907 14.4032 3.066 14.0904 3.2564Z" fill="currentColor" />
</svg>