<svg width="16" height="15" viewBox="0 0 16 15" fill="none" xmlns="http://www.w3.org/2000/svg">
<path fill-rule="evenodd" clip-rule="evenodd" d="M7.8498 0C5.05336 0 2.25018 0.472668 1.23307 1.41477C0.389196 2.19637 0.107892 3.57714 0.013068 4.45138C0.013068 4.45138 0 4.53778 0 4.57494C0 4.91776 0.2943 5.19272 0.65412 5.19272C0.696636 5.19272 2.26987 5.07222 3.21836 4.9981C3.24119 4.99497 3.26419 4.99191 3.28702 4.98576C3.64028 4.97655 3.9249 4.70465 3.9249 4.36798L3.92807 3.15085C3.92807 2.77399 4.252 2.47122 4.65106 2.47122H11.0485C11.4476 2.47122 11.7716 2.77396 11.7716 3.15085L11.7748 4.36798C11.7748 4.70465 12.0594 4.97655 12.4126 4.98576C12.4353 4.99195 12.4583 4.99497 12.4814 4.9981C13.4299 5.07219 15.0031 5.19272 15.0455 5.19272C15.4052 5.19272 15.6997 4.91776 15.6997 4.57494C15.6997 4.53778 15.6866 4.45138 15.6866 4.45138C15.5917 3.57714 15.3108 2.1964 14.4669 1.41477C13.4494 0.472668 10.6462 0 7.8498 0ZM7.8498 8.03158C7.12696 8.03158 6.54149 8.58449 6.54149 9.26718C6.54149 9.94986 7.12696 10.5027 7.8498 10.5027C8.57265 10.5027 9.15808 9.94986 9.15808 9.26718C9.15808 8.58449 8.57265 8.03158 7.8498 8.03158ZM6.86859 5.25137V4.47913C6.86859 4.05287 6.50221 3.70688 6.05092 3.70688C5.59962 3.70688 5.23325 4.0529 5.23325 4.47913V5.25137L0.8208 9.70275C0.516744 9.9839 0.326988 10.3761 0.326988 10.8087V12.0474C0.326988 12.7301 0.912492 13.2829 1.6353 13.2829H1.9624V14.0553C1.9624 14.4815 2.3288 14.8275 2.7801 14.8275C3.2314 14.8275 3.59777 14.4815 3.59777 14.0553V13.2829H12.1018V14.0553C12.1018 14.4815 12.4681 14.8275 12.9196 14.8275C13.3709 14.8275 13.7372 14.4815 13.7372 14.0553V13.2829H14.0643C14.7871 13.2829 15.3725 12.7301 15.3725 12.0474V10.8087C15.3725 10.3761 15.1828 9.98386 14.8787 9.70275L10.4665 5.25137V4.47913C10.4665 4.05287 10.1 3.70688 9.64872 3.70688C9.19743 3.70688 8.83109 4.0529 8.83109 4.47913V5.25137H6.86859ZM7.8498 6.79595C9.29549 6.79595 10.4665 7.90184 10.4665 9.26718C10.4665 10.6325 9.29553 11.7385 7.8498 11.7385C6.40411 11.7385 5.23321 10.6326 5.23321 9.26718C5.23321 7.9018 6.40411 6.79595 7.8498 6.79595Z" fill="currentColor"/>
</svg>
