<svg width="24" height="24" viewBox="0 0 24 24" fill="none" xmlns="http://www.w3.org/2000/svg">
<path d="M21.2371 2.67581C21.0284 2.50285 20.7768 2.38957 20.509 2.348C20.2412 2.30643 19.9671 2.33811 19.7158 2.43968L2.37677 9.43935C2.09658 9.55449 1.85803 9.75213 1.6928 10.006C1.52757 10.2599 1.44347 10.5581 1.45166 10.8609C1.45985 11.1637 1.55994 11.4569 1.73866 11.7014C1.91737 11.946 2.16625 12.1305 2.45225 12.2303L6.19354 13.529L8.22096 20.2316C8.22483 20.2452 8.23741 20.2539 8.24322 20.2665C8.26411 20.3199 8.29461 20.3691 8.33322 20.4116C8.39188 20.4771 8.4676 20.525 8.55193 20.55C8.5616 20.5539 8.56838 20.5626 8.57806 20.5645H8.58386L8.58677 20.5655C8.66163 20.5816 8.73943 20.5776 8.81225 20.5539C8.81999 20.5519 8.82773 20.5519 8.83644 20.549C8.90636 20.5245 8.96963 20.4841 9.02128 20.431C9.02709 20.4242 9.03677 20.4232 9.04257 20.4174L11.9584 17.1987L16.2135 20.4939C16.4719 20.6961 16.7903 20.8055 17.1184 20.8055C17.8287 20.8055 18.4413 20.3081 18.5874 19.6142L21.7442 4.1129C21.7977 3.84975 21.7788 3.577 21.6895 3.32373C21.6002 3.07047 21.4439 2.8462 21.2371 2.67484V2.67581ZM9.2787 14.8016L8.59451 18.1277L7.16709 13.4071L14.2461 9.72L9.41032 14.5568C9.34335 14.6237 9.29757 14.7088 9.2787 14.8016ZM17.639 19.4197C17.6209 19.5074 17.5804 19.589 17.5216 19.6567C17.4628 19.7243 17.3876 19.7756 17.3032 19.8058C17.2209 19.8375 17.1317 19.8472 17.0445 19.834C16.9573 19.8207 16.875 19.785 16.8058 19.7303L12.1964 16.1603C12.1001 16.0859 11.9792 16.0506 11.858 16.0614C11.7367 16.0721 11.624 16.1282 11.5423 16.2184L9.5129 18.4548L10.1961 15.1384L17.1532 8.18032C17.2347 8.09858 17.2843 7.99041 17.293 7.87533C17.3017 7.76025 17.269 7.64584 17.2008 7.55274C17.1326 7.45965 17.0334 7.394 16.921 7.36765C16.8086 7.3413 16.6905 7.35597 16.5881 7.40903L6.55935 12.6329L2.7687 11.3148C2.6682 11.2816 2.58054 11.218 2.51792 11.1326C2.45531 11.0473 2.42085 10.9445 2.41935 10.8387C2.41452 10.7319 2.44305 10.6263 2.50097 10.5365C2.55889 10.4467 2.64333 10.3771 2.74257 10.3374L20.0787 3.33774C20.1675 3.3 20.2652 3.28779 20.3605 3.30249C20.4559 3.31719 20.5453 3.35823 20.6187 3.42097C20.6916 3.47999 20.7467 3.55812 20.7778 3.64664C20.8089 3.73516 20.8148 3.83059 20.7948 3.92226L17.639 19.4206V19.4197Z" fill="black"/>
</svg>
