<svg width="30" height="24" viewBox="0 0 30 24" fill="none" xmlns="http://www.w3.org/2000/svg">
<path d="M23.9461 19.7775C23.2083 19.761 22.4891 19.5431 21.8661 19.1475C21.2157 18.7079 20.6184 18.1945 20.0861 17.6175C19.6461 17.1775 18.9161 16.4375 18.6361 16.4375C18.3561 16.4375 18.1561 17.3575 18.1661 18.0075C18.1703 18.4562 18.0021 18.8894 17.6961 19.2175C17.3481 19.5018 16.9234 19.6758 16.4761 19.7175H14.5561C11.7965 19.6568 9.15414 18.59 7.12606 16.7175C3.44606 13.3475 0.286063 6.90753 0.156063 6.62753C0.0320633 6.39361 -0.0198655 6.12821 0.00683068 5.86481C0.0335268 5.6014 0.137651 5.35181 0.306063 5.14753C0.687199 4.82967 1.16985 4.65933 1.66606 4.66753H5.74606H5.86606C6.20364 4.71678 6.52722 4.836 6.81606 5.01753C7.08788 5.1998 7.30552 5.45198 7.44606 5.74753C7.87724 6.6706 8.37175 7.56273 8.92606 8.41753C10.2361 10.4175 10.8161 10.8775 11.0261 10.9775C11.2597 10.0398 11.324 9.06788 11.2161 8.10753C11.2511 7.67014 11.179 7.2308 11.0061 6.82753C10.7865 6.65191 10.5169 6.55038 10.2361 6.53753L9.50606 5.84753C9.36606 5.18753 10.0961 4.61753 10.6061 4.39753C11.6238 4.07863 12.6916 3.94982 13.7561 4.01753H14.4661C15.1881 3.99873 15.9099 4.06587 16.6161 4.21753C18.3161 4.57753 18.2561 5.94753 18.1861 7.52753C18.1861 7.98753 18.1361 8.52753 18.1361 9.14753C18.1361 9.29753 18.1361 9.45753 18.1361 9.62753C18.0967 10.0629 18.1271 10.5017 18.2261 10.9275C19.0586 10.2311 19.7597 9.39116 20.2961 8.44753C20.875 7.55527 21.3832 6.61908 21.8161 5.64753C21.9479 5.34025 22.1739 5.08272 22.4614 4.91201C22.7489 4.7413 23.0832 4.6662 23.4161 4.69753H27.6961C27.8224 4.68547 27.9497 4.68547 28.0761 4.69753C29.0761 4.69753 29.6661 4.98753 29.9061 5.54753C30.1461 6.10753 30.0761 7.20753 27.5461 10.1575L26.5461 11.2875C26.0616 11.758 25.6443 12.293 25.3061 12.8775C25.6848 13.3081 26.1147 13.6909 26.5861 14.0175C27.7353 14.8835 28.7468 15.9186 29.5861 17.0875C29.7829 17.3148 29.9117 17.593 29.9576 17.8901C30.0036 18.1873 29.965 18.4914 29.8461 18.7675C29.6365 19.0734 29.3561 19.3241 29.0288 19.4982C28.7014 19.6723 28.3368 19.7647 27.9661 19.7675L24.1761 19.8175L23.9461 19.7775ZM18.6361 14.9375C19.5361 14.9375 20.3161 15.7275 21.1461 16.5575C21.5944 17.0471 22.0977 17.4833 22.6461 17.8575C23.0607 18.1333 23.5481 18.2795 24.0461 18.2775H24.1461L27.9461 18.2275C28.1335 18.2168 28.317 18.1692 28.4861 18.0875L28.3861 17.9275C27.6291 16.8959 26.7263 15.9797 25.7061 15.2075C24.5161 14.2075 23.9061 13.7375 23.8361 12.9675C23.7661 12.1975 24.3261 11.5275 25.4461 10.2575L26.4461 9.14753C27.2903 8.28639 27.9834 7.28908 28.4961 6.19753C28.2729 6.1843 28.0492 6.1843 27.8261 6.19753H23.4561C23.377 6.17986 23.2951 6.17986 23.2161 6.19753C22.7532 7.25898 22.2012 8.27929 21.5661 9.24753C19.6761 12.0675 18.7861 12.4475 18.1561 12.4475C17.9607 12.4475 17.7684 12.3995 17.5961 12.3075C16.5961 11.7375 16.5961 10.4675 16.6561 9.54753C16.6561 9.39753 16.6561 9.24753 16.6561 9.11753C16.6561 8.46753 16.6561 7.90753 16.7061 7.42753C16.7861 5.74753 16.7061 5.73753 16.3261 5.64753C15.7138 5.52655 15.09 5.4729 14.4661 5.48753H13.7761C13.1411 5.47441 12.5061 5.50784 11.8761 5.58753C11.9715 5.65784 12.0558 5.74212 12.1261 5.83753C12.5385 6.48787 12.7442 7.24794 12.7161 8.01753C12.8461 9.66753 12.7761 11.8175 11.7161 12.3375C11.5284 12.4254 11.3233 12.4698 11.1161 12.4675C10.1861 12.4675 9.26606 11.5875 7.69606 9.20753C7.09358 8.29624 6.5556 7.34392 6.08606 6.35753L6.00606 6.25753C5.90508 6.20606 5.79736 6.16903 5.68606 6.14753H1.68606H1.61606C2.20606 7.36753 5.00606 12.7675 8.13606 15.5975C9.89364 17.2122 12.1708 18.1451 14.5561 18.2275H16.4061C16.5004 18.2074 16.5914 18.1737 16.6761 18.1275C16.6761 18.1275 16.6761 18.1275 16.6761 18.0375C16.6761 17.7675 16.6761 15.4375 18.2561 15.0375C18.3784 14.9894 18.5059 14.9558 18.6361 14.9375Z" fill="#192144"/>
</svg>
