<svg width="24" height="24" viewBox="0 0 24 24" fill="none" xmlns="http://www.w3.org/2000/svg">
<path d="M14.7157 11.3135L10.3609 8.41027C10.3063 8.37392 10.2429 8.35304 10.1774 8.34984C10.1119 8.34665 10.0468 8.36126 9.98891 8.39213C9.93092 8.42229 9.88242 8.46793 9.84879 8.52398C9.81516 8.58003 9.79771 8.6443 9.79839 8.70967V14.5161C9.79771 14.5815 9.81516 14.6458 9.84879 14.7018C9.88242 14.7579 9.93092 14.8035 9.98891 14.8337C10.0423 14.8613 10.1012 14.8768 10.1613 14.879C10.233 14.8803 10.3031 14.858 10.3609 14.8155L14.7157 11.9123C14.7663 11.8804 14.808 11.8362 14.8369 11.7839C14.8658 11.7315 14.881 11.6727 14.881 11.6129C14.881 11.5531 14.8658 11.4943 14.8369 11.4419C14.808 11.3895 14.7663 11.3454 14.7157 11.3135ZM10.5242 13.8357V9.39011L13.8629 11.6129L10.5242 13.8357ZM20.9123 6.42338C20.8373 6.14675 20.6992 5.89132 20.5087 5.6772C20.3182 5.46309 20.0805 5.29613 19.8145 5.1895C16.748 4.01007 11.8216 4.02821 11.6129 4.02821C11.4042 4.02821 6.47782 4.01007 3.41129 5.1895C3.14527 5.29613 2.90764 5.46309 2.71714 5.6772C2.52664 5.89132 2.38846 6.14675 2.31351 6.42338C2.08669 7.30342 1.81451 8.91833 1.81451 11.6129C1.81451 14.3074 2.08669 15.9224 2.31351 16.8024C2.38846 17.079 2.52664 17.3345 2.71714 17.5486C2.90764 17.7627 3.14527 17.9296 3.41129 18.0363C6.47782 19.2157 11.4042 19.1976 11.6129 19.1976H11.6764C12.3024 19.1976 16.9022 19.1613 19.8145 18.0363C20.0805 17.9296 20.3182 17.7627 20.5087 17.5486C20.6992 17.3345 20.8373 17.079 20.9123 16.8024C21.1391 15.9224 21.4113 14.3074 21.4113 11.6129C21.4113 8.91833 21.1391 7.30342 20.9123 6.42338ZM20.2046 16.621C20.161 16.7861 20.0792 16.9387 19.9657 17.0663C19.8522 17.194 19.7103 17.2932 19.5514 17.3558C16.6119 18.4899 11.6673 18.4718 11.6129 18.4718C11.5585 18.4718 6.61391 18.4899 3.67439 17.3558C3.5155 17.2932 3.37357 17.194 3.2601 17.0663C3.14662 16.9387 3.06477 16.7861 3.02117 16.621C2.80343 15.7772 2.54032 14.2258 2.54032 11.6129C2.54032 8.99999 2.80343 7.44858 3.02117 6.60483C3.06477 6.43968 3.14662 6.28711 3.2601 6.15945C3.37357 6.03178 3.5155 5.93261 3.67439 5.86995C6.61391 4.73588 11.5585 4.75402 11.6129 4.75402C11.6673 4.75402 16.6119 4.73588 19.5514 5.86995C19.7103 5.93261 19.8522 6.03178 19.9657 6.15945C20.0792 6.28711 20.161 6.43968 20.2046 6.60483C20.4224 7.44858 20.6855 8.99999 20.6855 11.6129C20.6855 14.2258 20.4224 15.7772 20.2046 16.621Z" fill="black"/>
</svg>
