<svg viewBox="0 0 25 25" fill="none" xmlns="http://www.w3.org/2000/svg"><path d="M18.95 21.88a4.5 4.5 0 1 1 0-8.99 4.5 4.5 0 0 1 0 8.98Zm0-7.43a2.93 2.93 0 1 0 0 5.86 2.93 2.93 0 0 0 0-5.86Zm-12.9 7.43a4.5 4.5 0 1 1 0-8.99 4.5 4.5 0 0 1 0 8.98Zm0-7.43a2.93 2.93 0 1 0 0 5.86 2.93 2.93 0 0 0 0-5.86Zm9.58-8.2a1.56 1.56 0 0 0 1.56-1.57 1.54 1.54 0 0 0-2.15-1.44 1.56 1.56 0 0 0 .59 3.01Z" fill="currentColor"/><path d="M17.95 9.38h-2.14a.2.2 0 0 1-.17-.1l-1.55-2.85a1.51 1.51 0 0 0-2.41-.38l-3.41 3.44c-.29.3-.45.69-.46 1.1 0 .85.62 1.15.9 1.32 1.4.8 2.38 1.39 2.91 1.71a.2.2 0 0 1 .1.17v3.37c0 .43.32.79.74.8a.78.78 0 0 0 .82-.77v-4.2a.78.78 0 0 0-.32-.64l-1.81-1.3a.2.2 0 0 1-.03-.29l2.05-2.19a.2.2 0 0 1 .32.04l1.06 1.93a.78.78 0 0 0 .68.4h2.74a.78.78 0 0 0 .78-.82.8.8 0 0 0-.8-.74Z" fill="currentColor"/></svg>