<svg viewBox="0 0 22 24" fill="none" xmlns="http://www.w3.org/2000/svg"><path d="M15.45 6c1 0 1.82-.9 1.82-2s-.81-2-1.82-2c-1 0-1.81.9-1.81 2s.81 2 1.81 2Zm-1.11 4.97c.21.34.51.6.86.75.35.15.73.18 1.1.08l3.01-.83-.44-1.94-3.01.83-1.26-2.07a1.83 1.83 0 0 0-1.15-.85l-3.5-.77c-.4-.09-.8-.03-1.16.16a2 2 0 0 0-.82.9l-1.51 3.32 1.63.9 1.5-3.32 1.8.4-4.63 8.47h-4.03v2h4.03a1.8 1.8 0 0 0 1.56-.97l1.74-3.2 4.7 1.04 1.65 5.45 1.72-.64-1.65-5.45a2 2 0 0 0-.52-.86c-.24-.24-.53-.4-.84-.46l-2.77-.61 1.61-2.96.38.63Z" fill="currentColor"/></svg>