<svg viewBox="0 0 20 20" fill="currentColor" xmlns="http://www.w3.org/2000/svg"><path fill-rule="evenodd" clip-rule="evenodd" d="m10 8.12 1.12-2.34a7.7 7.7 0 0 1 1.44-2.1 3.43 3.43 0 0 1 2.44-1.12 3.8 3.8 0 0 1 3.75 3.84c0 1.59-.7 2.7-2.34 4.42-.42.44-.9.91-1.43 1.44a67.62 67.62 0 0 0-4.98 5.33 67.62 67.62 0 0 0-4.98-5.33c-.53-.53-1.01-1-1.43-1.44-1.65-1.71-2.34-2.83-2.34-4.42a3.8 3.8 0 0 1 3.75-3.84c.97 0 1.77.46 2.44 1.12a7.7 7.7 0 0 1 1.44 2.1l1.12 2.34Zm.49 10.9a.65.65 0 0 1-.49.23.62.62 0 0 1-.49-.24c-2-2.5-3.81-4.28-5.3-5.75-2.58-2.55-4.21-4.15-4.21-6.86a5.07 5.07 0 0 1 5-5.15c2 0 3.4 1.38 4.26 2.64.32.48.57.94.74 1.3.22-.45.47-.89.74-1.3.86-1.26 2.26-2.64 4.26-2.64 2.76 0 5 2.3 5 5.15 0 2.71-1.63 4.31-4.2 6.86a63.7 63.7 0 0 0-5.31 5.75Z" opacity=".5"/></svg>