<svg viewBox="0 0 16 15" fill="none" xmlns="http://www.w3.org/2000/svg"><path fill-rule="evenodd" clip-rule="evenodd" d="M7.85 0c-2.8 0-5.6.47-6.62 1.41-.84.79-1.12 2.17-1.22 3.04l-.01.12c0 .35.3.62.65.62l2.57-.2h.07a.64.64 0 0 0 .63-.62v-1.22c0-.38.33-.68.73-.68h6.4c.4 0 .72.3.72.68v1.22c0 .33.29.6.64.62h.07l2.57.2c.36 0 .65-.27.65-.62l-.01-.12c-.1-.87-.38-2.25-1.22-3.04-1.02-.94-3.82-1.41-6.62-1.41Zm0 8.03c-.72 0-1.3.55-1.3 1.24 0 .68.58 1.23 1.3 1.23.72 0 1.3-.55 1.3-1.23 0-.69-.58-1.24-1.3-1.24Zm-.98-2.78v-.77a.8.8 0 0 0-.82-.77.8.8 0 0 0-.82.77v.77l-4.4 4.45c-.31.28-.5.68-.5 1.1v1.25c0 .68.58 1.23 1.3 1.23h.33v.78c0 .42.37.77.82.77a.8.8 0 0 0 .82-.77v-.78h8.5v.78c0 .42.37.77.82.77a.8.8 0 0 0 .82-.77v-.78h.32c.73 0 1.31-.55 1.31-1.23v-1.24c0-.43-.19-.83-.5-1.1l-4.4-4.46v-.77c0-.43-.37-.77-.82-.77a.8.8 0 0 0-.82.77v.77h-1.96Zm.98 1.55c1.45 0 2.62 1.1 2.62 2.47a2.55 2.55 0 0 1-2.62 2.47 2.55 2.55 0 0 1-2.62-2.47 2.55 2.55 0 0 1 2.62-2.47Z" fill="currentColor"/></svg>