<svg viewBox="0 0 24 24" fill="none" xmlns="http://www.w3.org/2000/svg"><path d="M21.24 2.68a1.5 1.5 0 0 0-1.52-.24l-17.34 7a1.5 1.5 0 0 0 .07 2.79l3.74 1.3 2.03 6.7.02.04a.47.47 0 0 0 .31.28l.03.01c.08.02.16.02.23 0l.03-.01a.48.48 0 0 0 .18-.12l.02-.01 2.92-3.22 4.25 3.3a1.5 1.5 0 0 0 2.37-.88l3.16-15.5a1.48 1.48 0 0 0-.5-1.45Zm-11.96 12.12-.69 3.33-1.42-4.72 7.08-3.69-4.84 4.84a.48.48 0 0 0-.13.24Zm8.36 4.62a.52.52 0 0 1-.34.39.5.5 0 0 1-.5-.08l-4.6-3.57a.48.48 0 0 0-.66.06l-2.03 2.23.69-3.31 6.95-6.96a.48.48 0 0 0-.56-.77l-10.03 5.22-3.8-1.32a.5.5 0 0 1-.34-.47.51.51 0 0 1 .32-.5l17.34-7a.52.52 0 0 1 .54.08.5.5 0 0 1 .17.5l-3.15 15.5Z" fill="#000"/></svg>