<svg viewBox="0 0 24 24" fill="none" xmlns="http://www.w3.org/2000/svg"><path d="m14.72 11.31-4.36-2.9a.36.36 0 0 0-.56.3v5.8a.35.35 0 0 0 .19.32.4.4 0 0 0 .17.05c.07 0 .14-.02.2-.06l4.36-2.9a.35.35 0 0 0 0-.6Zm-4.2 2.53v-4.45l3.34 2.22-3.34 2.23Zm10.4-7.42a1.85 1.85 0 0 0-1.1-1.23c-3.07-1.18-8-1.16-8.2-1.16-.22 0-5.14-.02-8.2 1.16a1.85 1.85 0 0 0-1.1 1.23c-.23.88-.5 2.5-.5 5.2 0 2.69.27 4.3.5 5.18a1.85 1.85 0 0 0 1.1 1.24c3.06 1.18 7.98 1.16 8.2 1.16h.06c.62 0 5.22-.04 8.13-1.16a1.85 1.85 0 0 0 1.1-1.24c.23-.88.5-2.5.5-5.19 0-2.7-.27-4.3-.5-5.19Zm-.72 10.2a1.09 1.09 0 0 1-.65.74c-2.94 1.13-7.88 1.11-7.94 1.11-.05 0-5 .02-7.94-1.11a1.09 1.09 0 0 1-.65-.74c-.22-.84-.48-2.4-.48-5 0-2.62.26-4.17.48-5.02a1.09 1.09 0 0 1 .65-.73c2.94-1.13 7.89-1.12 7.94-1.12.06 0 5-.01 7.94 1.12a1.09 1.09 0 0 1 .65.73c.22.85.49 2.4.49 5.01 0 2.62-.27 4.17-.49 5.01Z" fill="#000"/></svg>