<svg xmlns="http://www.w3.org/2000/svg"><style>:root svg:not(:target){display:none}</style><svg viewBox="0 0 15 12" fill="none" id="email-icon"><path d="m.46 1.2 6 3.76c.2.13.46.19.72.19.27 0 .53-.06.73-.19l6-3.76c.39-.25.76-1.2.04-1.2h-13.53c-.72 0-.35.95.04 1.2Zm13.63 2.06-6.18 3.75a1.2 1.2 0 0 1-.73.2 1.2 1.2 0 0 1-.72-.2l-6.15-3.75c-.31-.2-.31.03-.31.2v6.8c0 .4.45.94.8.94h12.8c.35 0 .8-.54.8-.93v-6.8c0-.18 0-.4-.31-.21Z" fill="currentColor"></path></svg><svg viewBox="0 0 168 42" fill="none" id="logo-desktop"><path d="m78.02 10.62-33.28 31.38-12.15-40.23 45.43 8.85Z" fill="#4D99D6"></path><ellipse cx="78.624" cy="28.474" rx="3.613" ry="3.572" fill="#88BFEB"></ellipse><ellipse cx="92.85" cy="18.086" rx="12.594" ry="12.45" fill="#EB9898"></ellipse><path fill="#72A73E" d="m85.44 19.57 43.82-16.02 8.25 22.05-43.81 16.03z"></path><ellipse cx="91.334" cy="34.141" rx="2.117" ry="2.093" fill="#FFBD30"></ellipse><ellipse cx="18.919" cy="7.587" rx="18.919" ry="7.587" transform="matrix(.97025 .24212 -.24742 .9689 115.568 16.118)" fill="#8EC7F5"></ellipse><ellipse cx="146.385" cy="10.256" rx="2.153" ry="2.128" fill="#FFBD30"></ellipse><ellipse cx="153.101" cy="7.728" rx="2.153" ry="2.128" fill="#FFBD30"></ellipse><path d="M3.34 35.35h5v2.32a1 1 0 0 1-1 1h-3a1 1 0 0 1-1-1v-2.32Zm30.86 0h5v2.32a1 1 0 0 1-1 1h-3a1 1 0 0 1-1-1v-2.32Z" fill="#1D2959"></path><path fill-rule="evenodd" clip-rule="evenodd" d="M23.92 2.94a8.18 8.18 0 0 0-2.8-.68 8.2 8.2 0 0 0-2.64.7c-.5.21-1 .44-1.49.7a1.18 1.18 0 1 1-1.15-2.06 15.1 15.1 0 0 1 1.74-.82c.95-.39 2.29-.76 3.49-.78 1.27-.02 2.7.35 3.72.75.64.25 1.26.52 1.86.85.58.3.8 1.02.48 1.6a1.2 1.2 0 0 1-1.6.47 13 13 0 0 0-1.61-.73Z" fill="#8A4A38"></path><path fill-rule="evenodd" clip-rule="evenodd" d="M16 1.45a.96.96 0 0 0-.97.96v.62c0 .44.36.8.8.8h.02v3.06h.84v-3.08h-.22a1.19 1.19 0 0 0-.22-2.36h-.26Zm10.51 0c.53 0 .96.43.96.96v.62a.8.8 0 0 1-.8.8h-.02v3.06h-.84v-3.08h.22a1.19 1.19 0 0 1 .23-2.36h.25Z" fill="#F6EF3E"></path><path d="M0 15.52a9 9 0 0 1 9-9h24.54a9 9 0 0 1 9 9v19.83h-42.54v-19.83Z" fill="#8A4A38"></path><ellipse cx="6.684" cy="27.928" rx="4.167" ry="4.121" fill="#EF9A9A"></ellipse><ellipse cx="4.016" cy="7.727" rx="4.016" ry="7.727" transform="matrix(.70085 -.71331 .72133 .69259 24.378 25.582)" fill="#93C6EB"></ellipse><path fill="#C2DEA3" d="m16.4 17.9 9.43-9.92 5.59 5.19-9.44 9.92z"></path><rect width="6.956" height="5.217" rx="1" transform="matrix(.7339 .67927 -.68766 .72603 8.785 11.14)" fill="#C49A6C"></rect><path fill="#F57B20" d="M8.33 19.36h5.87v16.8h-5.87z"></path><path d="M8.33 5.43h5.87v14.55a2.93 2.93 0 0 1-5.87 0v-14.55Z" fill="#F6A725"></path><path fill="#F6EF3E" d="M7.52 18.04h7.5v1.65h-7.5z"></path><path fill="#F57B20" d="M28.35 19.36h5.86v16.8h-5.86z"></path><path d="M28.35 5.43h5.86v14.55a2.93 2.93 0 0 1-5.87 0v-14.55Z" fill="#F6A725"></path><path fill="#F6EF3E" d="M27.53 18.04h7.5v1.65h-7.5z"></path><g filter="url(#logo-desktop_0)" fill="#fff"><path d="M164.79 19.06a2.6 2.6 0 0 0 1.21-2.35c0-1.38-.58-2.47-1.74-3.26a6.72 6.72 0 0 0-4-1.2 7 7 0 0 0-4.11 1.3 4.04 4.04 0 0 0-1.85 3.46c0 .53.17.98.51 1.33.34.34.83.5 1.46.5.6 0 1.08-.16 1.4-.5.34-.35.5-.8.5-1.33-.02-.41.11-.83.42-1.25.3-.44.86-.66 1.67-.66.68.02 1.16.19 1.45.51.31.32.45.65.42.97 0 .23-.09.45-.25.68-.16.23-.33.4-.5.53-.17.13-.43.3-.8.55l-.78.5a2.83 2.83 0 0 0-1.26 2.42c0 .49.18.9.53 1.24.38.33.87.49 1.48.49s1.1-.16 1.45-.49c.38-.33.56-.75.56-1.24 0-.22.04-.41.12-.6.08-.18.21-.35.39-.5l.48-.38c.15-.1.36-.23.63-.38.3-.16.5-.27.6-.34Zm-20.69 4.44 4.29-5.24a2.36 2.36 0 0 1 1.79-1.06 2.6 2.6 0 0 1 1.98.54c.56.45.83 1.04.8 1.8v7.51c0 .48-.19.88-.57 1.21-.36.32-.8.48-1.32.48-.51 0-.96-.16-1.34-.48a1.58 1.58 0 0 1-.54-1.2v-4.67l-4.3 5.25c-.43.63-1.03.98-1.78 1.05a2.6 2.6 0 0 1-1.98-.54 2.05 2.05 0 0 1-.8-1.79v-7.5c0-.47.18-.87.54-1.2.38-.34.82-.5 1.34-.5.52 0 .96.16 1.32.5.38.33.57.73.57 1.2v4.65Z"></path><path fill-rule="evenodd" clip-rule="evenodd" d="M124.82 26.98v-8.16c0-.47-.2-.87-.6-1.2a1.93 1.93 0 0 0-1.35-.54c-.51 0-.95.18-1.34.53-.38.34-.57.74-.57 1.21v-.2a2.42 2.42 0 0 0-1.14-1.12 3.9 3.9 0 0 0-1.95-.48c-1.43 0-2.74.52-3.95 1.56a5.43 5.43 0 0 0-1.76 4.29c0 1.86.58 3.3 1.74 4.33a5.82 5.82 0 0 0 3.97 1.54c.73 0 1.37-.13 1.93-.4a3 3 0 0 0 1.21-.99c.1.4.32.73.67 1a2 2 0 0 0 1.19.37c.52 0 .97-.17 1.35-.51.4-.34.6-.75.6-1.23Zm-6.09-1.5c1.3 0 2.36-1.13 2.36-2.52 0-1.4-1.06-2.52-2.36-2.52-1.3 0-2.35 1.13-2.35 2.52 0 1.4 1.05 2.52 2.35 2.52Z"></path><path d="M107.15 21.31v-2.36c0-.48.2-.88.59-1.22a2 2 0 0 1 1.37-.52 2 2 0 0 1 1.38.52c.39.34.59.74.59 1.22v8.08c0 .48-.2.89-.6 1.22a2 2 0 0 1-1.37.5c-.54 0-1-.17-1.4-.5a1.57 1.57 0 0 1-.56-1.22v-2.4h-4.25v2.4c0 .48-.2.89-.58 1.22a2 2 0 0 1-1.38.5c-.54 0-1-.17-1.4-.5a1.57 1.57 0 0 1-.56-1.22v-8.08c0-.48.2-.88.59-1.22a2 2 0 0 1 1.37-.52 2 2 0 0 1 1.38.52c.39.34.59.74.59 1.22v2.36h4.24Zm-10.15-4.1c.4 0 .72.15 1 .43.27.3.41.96.41 1.36 0 .4-.14.82-.41 1.11-.28.3-.6.4-1 .4h-3.28v6.56c0 1.25-1.1 1.68-2.21 1.68-1.03 0-2.01-.55-2.01-1.67l.03-9.87h7.48Zm-23.46-4.96v14.67c0 .48-.27.89-.64 1.23-.35.33-.9.5-1.41.5-.5 0-1.24-.17-1.6-.5a1.64 1.64 0 0 1-.53-1.23v-11.36h-5.92v11.36c0 .48-.19.89-.56 1.23-.35.33-1.07.5-1.57.5s-1.17-.17-1.54-.5a1.64 1.64 0 0 1-.53-1.23v-14.67h14.3Zm13.1 14.7a6.78 6.78 0 0 1-4.8 1.67c-2.01 0-3.6-.56-4.79-1.67a5.54 5.54 0 0 1-1.82-4.23c0-1.7.6-3.12 1.82-4.23 1.18-1.11 2.78-1.67 4.78-1.67a6.8 6.8 0 0 1 4.81 1.67 5.58 5.58 0 0 1 1.8 4.23c0 1.7-.6 3.1-1.8 4.23Zm-3.12-5.97a2.05 2.05 0 0 0-1.24-.63 2.57 2.57 0 0 0-1.37.13c-.42.17-.78.45-1.08.85-.29.4-.4.86-.37 1.39 0 .7.22 1.28.66 1.74.45.45 1.03.68 1.71.68.7 0 1.28-.22 1.72-.65.44-.45.66-1.04.66-1.77 0-.7-.23-1.28-.69-1.74Zm46.92-3.82 8.25.03v9.79c0 .48-.2.9-.6 1.26-.4.33-.74.5-1.33.5-.59 0-.89.04-1.3-.3a2.3 2.3 0 0 1-.74-1.46v-6.55h-2.73c0 4.7 0 5.72-1.75 7.4-.64.6-1.47.9-2.48.9-.6 0-.96-.14-1.35-.47a2.08 2.08 0 0 1-.69-1.44c0-1.12.24-1.56.85-2.3 1.74 0 1.67-.41 1.56-3.59v-2.01c.01-.49.1-1.76.1-1.76h2.2Zm32.4 9.11a2.54 2.54 0 0 1-2.6 2.47 2.53 2.53 0 0 1-2.61-2.47 2.54 2.54 0 0 1 2.6-2.47c1.44 0 2.61 1.1 2.61 2.47Z"></path></g><defs><filter id="logo-desktop_0" x="57.241" y="11.248" width="110.759" height="20.504" filterUnits="userSpaceOnUse" color-interpolation-filters="sRGB"><feFlood flood-opacity="0" result="BackgroundImageFix"></feFlood><feColorMatrix in="SourceAlpha" values="0 0 0 0 0 0 0 0 0 0 0 0 0 0 0 0 0 0 127 0" result="hardAlpha"></feColorMatrix><feOffset dy="1"></feOffset><feGaussianBlur stdDeviation="1"></feGaussianBlur><feColorMatrix values="0 0 0 0 0 0 0 0 0 0 0 0 0 0 0 0 0 0 0.3 0"></feColorMatrix><feBlend in2="BackgroundImageFix" result="effect1_dropShadow_13528_717"></feBlend><feBlend in="SourceGraphic" in2="effect1_dropShadow_13528_717" result="shape"></feBlend></filter></defs></svg><svg viewBox="0 0 96 15" fill="none" id="logo-mobile"><path d="M94.91 6.19c.73-.46 1.09-1.17 1.09-2.13a3.4 3.4 0 0 0-1.57-2.96 6 6 0 0 0-3.6-1.1c-1.34 0-2.57.4-3.7 1.2a3.66 3.66 0 0 0-1.65 3.12c0 .5.16.9.46 1.22.3.3.74.46 1.3.46s.98-.16 1.27-.46c.3-.33.46-.73.46-1.22-.03-.37.1-.75.37-1.13.27-.4.77-.6 1.5-.6.6.02 1.04.17 1.3.47.28.3.4.59.38.88 0 .2-.08.41-.22.62-.15.2-.3.36-.46.48-.14.11-.38.28-.72.5l-.7.46a2.58 2.58 0 0 0-1.13 2.19c0 .45.16.82.48 1.13.34.3.78.44 1.33.44s.99-.14 1.3-.44c.34-.3.5-.68.5-1.13a1.32 1.32 0 0 1 .46-1l.44-.35c.13-.09.32-.2.57-.34l.54-.31Zm-18.61 4.05 3.86-4.78c.4-.57.93-.9 1.61-.96a2.3 2.3 0 0 1 1.78.5c.51.4.75.94.72 1.62v6.84c0 .43-.17.8-.5 1.1a1.8 1.8 0 0 1-1.2.43 1.8 1.8 0 0 1-1.2-.43c-.33-.3-.49-.67-.49-1.1v-4.25l-3.85 4.78c-.4.57-.94.9-1.61.96a2.32 2.32 0 0 1-1.78-.5c-.51-.4-.75-.94-.72-1.62v-6.82c0-.43.16-.8.48-1.1.34-.3.74-.45 1.21-.45s.86.15 1.19.45c.34.3.5.67.5 1.1v4.23Z" fill="currentColor"></path><path fill-rule="evenodd" clip-rule="evenodd" d="M58.97 13.39v-7.41c0-.43-.18-.8-.54-1.1a1.73 1.73 0 0 0-1.22-.48c-.45 0-.85.16-1.2.48-.34.3-.5.67-.5 1.1v-.18c-.18-.4-.52-.74-1.03-1.02-.52-.3-1.1-.44-1.76-.44-1.28 0-2.47.47-3.55 1.42a4.97 4.97 0 0 0-1.58 3.9c0 1.68.52 3 1.56 3.93a5.2 5.2 0 0 0 3.57 1.4c.66 0 1.23-.12 1.73-.36.5-.26.87-.56 1.1-.9.08.36.28.66.6.9.3.22.66.34 1.06.34.47 0 .88-.16 1.22-.46.36-.3.54-.68.54-1.12Zm-5.47-1.36c1.17 0 2.11-1.03 2.11-2.3 0-1.26-.94-2.29-2.11-2.29s-2.12 1.03-2.12 2.3c0 1.26.95 2.29 2.12 2.29Z" fill="currentColor"></path><path d="M43.08 8.24v-2.15c0-.43.18-.8.53-1.1a1.8 1.8 0 0 1 1.24-.48c.47 0 .88.16 1.23.48.36.3.53.67.53 1.1v7.35c0 .43-.17.8-.53 1.1-.34.3-.75.46-1.23.46-.49 0-.9-.15-1.26-.46a1.4 1.4 0 0 1-.5-1.1v-2.18h-3.83v2.18c0 .43-.17.8-.53 1.1-.33.3-.75.46-1.23.46-.49 0-.9-.15-1.26-.46a1.4 1.4 0 0 1-.5-1.1v-7.35c0-.43.17-.8.52-1.1a1.8 1.8 0 0 1 1.24-.48c.47 0 .88.16 1.23.48.36.3.53.67.53 1.1v2.15h3.82Zm-9.12-3.73c.35 0 .64.13.9.4.24.26.36.86.36 1.23s-.12.75-.37 1c-.25.27-.54.36-.89.36h-2.96v5.97c0 1.13-.99 1.53-1.99 1.53-.92 0-1.8-.5-1.8-1.52l.03-8.97h6.72Zm-21.1-4.51v13.33c0 .44-.24.81-.57 1.12-.32.3-.82.46-1.28.46-.45 0-1.1-.15-1.44-.46a1.5 1.5 0 0 1-.47-1.12v-10.32h-5.33v10.32c0 .44-.16.81-.5 1.12-.31.3-.96.46-1.41.46a2.2 2.2 0 0 1-1.38-.46 1.5 1.5 0 0 1-.48-1.12v-13.33h12.86Zm11.78 13.37a6.06 6.06 0 0 1-4.32 1.51c-1.8 0-3.24-.5-4.3-1.52a5.06 5.06 0 0 1-1.64-3.84c0-1.56.54-2.84 1.64-3.85a5.97 5.97 0 0 1 4.3-1.51c1.8 0 3.24.5 4.32 1.51a5.1 5.1 0 0 1 1.61 3.85 5.1 5.1 0 0 1-1.61 3.85Zm-2.8-5.44c-.3-.31-.68-.5-1.12-.56a2.29 2.29 0 0 0-1.24.11c-.38.15-.7.4-.97.77-.25.36-.36.79-.33 1.27 0 .63.2 1.16.6 1.58.4.4.92.61 1.54.61.63 0 1.14-.2 1.54-.59.4-.4.6-.94.6-1.6a2.2 2.2 0 0 0-.62-1.59Zm42.18-3.47 7.42.03v8.9c0 .44-.18.82-.54 1.14-.35.3-.66.46-1.2.46-.52 0-.8.04-1.16-.27a2.1 2.1 0 0 1-.66-1.33v-5.95h-2.46c0 4.26 0 5.2-1.57 6.72-.58.55-1.33.83-2.24.83-.54 0-.86-.13-1.21-.44a1.9 1.9 0 0 1-.62-1.3c0-1.02.22-1.43.76-2.09 1.57 0 1.5-.38 1.4-3.27v-1.83l.1-1.6h1.98Zm29.14 8.29a2.3 2.3 0 0 1-2.34 2.24c-1.3 0-2.35-1-2.35-2.24a2.3 2.3 0 0 1 2.35-2.25c1.29 0 2.34 1 2.34 2.25Z" fill="currentColor"></path></svg><svg viewBox="0 0 19 20" fill="none" id="menu-button-close"><rect width="23.891" height="2.032" rx="1.016" transform="scale(.98435 1.0154) rotate(45 -.173 2.905)" fill="#CCC"></rect><rect width="23.891" height="2.032" rx="1.016" transform="matrix(.69604 -.718 .69604 .718 -.4 17.754)" fill="#CCC"></rect></svg><svg viewBox="0 0 25 11" fill="none" id="menu-button-open"><rect width="25" height="3" rx="1.5" fill="#fff"></rect><rect y="8" width="25" height="3" rx="1.5" fill="#fff"></rect></svg><svg viewBox="0 0 18 18" fill="none" id="phone-icon"><path d="M8.97 7.42c0 .2.16.34.35.34.38 0 .7.32.7.7 0 .18.15.33.34.33.19 0 .34-.15.34-.33 0-.76-.62-1.37-1.38-1.37a.34.34 0 0 0-.35.33Zm5.56 1.37c.2 0 .34-.15.34-.33 0-3.03-2.49-5.5-5.55-5.5a.34.34 0 0 0-.35.34c0 .19.16.34.35.34a4.85 4.85 0 0 1 4.87 4.82c0 .18.15.33.34.33Z" fill="currentColor"></path><path d="M12.1 8.46c0 .18.16.33.35.33.18 0 .34-.15.34-.33 0-1.9-1.56-3.44-3.47-3.44a.34.34 0 0 0-.35.34c0 .2.16.34.35.34a2.78 2.78 0 0 1 2.78 2.76Zm-2.78-7.56a.34.34 0 0 0-.35.34c0 .18.16.33.35.33a6.93 6.93 0 0 1 6.96 6.89c0 .18.15.33.34.33.19 0 .34-.15.34-.33a7.61 7.61 0 0 0-7.64-7.56Zm3.33 11.11-.45.24c-.75.41-1.34 1.53-2.27.69l-2.43-2.44-2.1-2.04c-1.06-1.34.13-1.65.54-2.4l.24-.44a2.57 2.57 0 0 0-.45-3.1 2.67 2.67 0 0 0-3.74 0l-.17.18c-.93.91-1.03 2.48-.3 4.42a16.39 16.39 0 0 0 3.88 5.67c2.77 2.73 5.85 4.31 8.06 4.31.88 0 1.62-.25 2.14-.77l.18-.17a2.6 2.6 0 0 0 0-3.7c-.82-.81-2.1-1-3.13-.45Z" fill="currentColor"></path></svg><svg viewBox="0 0 16 15" fill="none" id="phone-mobile-icon"><path fill-rule="evenodd" clip-rule="evenodd" d="M7.85 0c-2.8 0-5.6.47-6.62 1.41-.84.79-1.12 2.17-1.22 3.04l-.01.12c0 .35.3.62.65.62l2.57-.2h.07a.64.64 0 0 0 .63-.62v-1.22c0-.38.33-.68.73-.68h6.4c.4 0 .72.3.72.68v1.22c0 .33.29.6.64.62h.07l2.57.2c.36 0 .65-.27.65-.62l-.01-.12c-.1-.87-.38-2.25-1.22-3.04-1.02-.94-3.82-1.41-6.62-1.41Zm0 8.03c-.72 0-1.3.55-1.3 1.24 0 .68.58 1.23 1.3 1.23.72 0 1.3-.55 1.3-1.23 0-.69-.58-1.24-1.3-1.24Zm-.98-2.78v-.77a.8.8 0 0 0-.82-.77.8.8 0 0 0-.82.77v.77l-4.4 4.45c-.31.28-.5.68-.5 1.1v1.25c0 .68.58 1.23 1.3 1.23h.33v.78c0 .42.37.77.82.77a.8.8 0 0 0 .82-.77v-.78h8.5v.78c0 .42.37.77.82.77a.8.8 0 0 0 .82-.77v-.78h.32c.73 0 1.31-.55 1.31-1.23v-1.24c0-.43-.19-.83-.5-1.1l-4.4-4.46v-.77c0-.43-.37-.77-.82-.77a.8.8 0 0 0-.82.77v.77h-1.96Zm.98 1.55c1.45 0 2.62 1.1 2.62 2.47a2.55 2.55 0 0 1-2.62 2.47 2.55 2.55 0 0 1-2.62-2.47 2.55 2.55 0 0 1 2.62-2.47Z" fill="currentColor"></path></svg><svg viewBox="0 0 24 24" fill="none" id="telegram"><path d="M21.24 2.68a1.5 1.5 0 0 0-1.52-.24l-17.34 7a1.5 1.5 0 0 0 .07 2.79l3.74 1.3 2.03 6.7.02.04a.47.47 0 0 0 .31.28l.03.01c.08.02.16.02.23 0l.03-.01a.48.48 0 0 0 .18-.12l.02-.01 2.92-3.22 4.25 3.3a1.5 1.5 0 0 0 2.37-.88l3.16-15.5a1.48 1.48 0 0 0-.5-1.45Zm-11.96 12.12-.69 3.33-1.42-4.72 7.08-3.69-4.84 4.84a.48.48 0 0 0-.13.24Zm8.36 4.62a.52.52 0 0 1-.34.39.5.5 0 0 1-.5-.08l-4.6-3.57a.48.48 0 0 0-.66.06l-2.03 2.23.69-3.31 6.95-6.96a.48.48 0 0 0-.56-.77l-10.03 5.22-3.8-1.32a.5.5 0 0 1-.34-.47.51.51 0 0 1 .32-.5l17.34-7a.52.52 0 0 1 .54.08.5.5 0 0 1 .17.5l-3.15 15.5Z" fill="#000"></path></svg><svg viewBox="0 0 30 24" fill="none" id="vk"><path d="M23.95 19.78a4.05 4.05 0 0 1-2.08-.63c-.65-.44-1.25-.96-1.78-1.53-.44-.44-1.17-1.18-1.45-1.18s-.48.92-.47 1.57c0 .45-.17.88-.47 1.2-.35.3-.78.47-1.22.5h-1.92a11.32 11.32 0 0 1-7.43-3c-3.68-3.36-6.84-9.8-6.97-10.08a1.34 1.34 0 0 1 .15-1.48 2 2 0 0 1 1.36-.48h4.2c.33.05.66.17.95.35.27.18.49.43.63.73.43.92.92 1.81 1.48 2.67 1.3 2 1.89 2.46 2.1 2.56.23-.94.3-1.91.19-2.87a2.7 2.7 0 0 0-.21-1.28 1.33 1.33 0 0 0-.77-.3l-.73-.68c-.14-.66.59-1.23 1.1-1.45a8.69 8.69 0 0 1 3.15-.38h.7a9.2 9.2 0 0 1 2.16.2c1.7.36 1.64 1.73 1.57 3.3 0 .47-.05 1-.05 1.63v.48c-.04.43-.01.87.09 1.3a9.09 9.09 0 0 0 2.07-2.48 20.4 20.4 0 0 0 1.52-2.8 1.58 1.58 0 0 1 1.6-.95h4.28a2 2 0 0 1 .38 0c1 0 1.59.29 1.83.85s.17 1.66-2.36 4.6l-1 1.14c-.49.47-.9 1-1.24 1.59.37.43.8.81 1.28 1.14a14.1 14.1 0 0 1 3 3.07 1.6 1.6 0 0 1 .26 1.68 2.3 2.3 0 0 1-1.88 1l-3.8.05-.22-.04Zm-5.31-4.84c.9 0 1.68.79 2.5 1.62.45.49.96.92 1.5 1.3.42.27.9.42 1.4.42h.1l3.8-.05c.2-.01.38-.06.55-.14l-.1-.16a13.22 13.22 0 0 0-2.68-2.72c-1.2-1-1.8-1.47-1.87-2.24-.07-.77.49-1.44 1.6-2.71l1-1.11a10.8 10.8 0 0 0 2.06-2.95 5.66 5.66 0 0 0-.67 0h-4.37a.55.55 0 0 0-.24 0 20.5 20.5 0 0 1-1.65 3.05c-1.9 2.82-2.78 3.2-3.41 3.2-.2 0-.4-.05-.56-.14-1-.57-1-1.84-.94-2.76v-.43c0-.65 0-1.21.05-1.7.08-1.67 0-1.68-.38-1.77a8.56 8.56 0 0 0-1.86-.16h-.7a13 13 0 0 0-1.9.1c.1.07.19.15.26.25.4.65.61 1.4.59 2.18.13 1.65.06 3.8-1 4.32-.2.09-.4.13-.6.13-.93 0-1.85-.88-3.42-3.26-.6-.91-1.14-1.87-1.61-2.85l-.08-.1a.94.94 0 0 0-.32-.11h-4.07c.59 1.22 3.39 6.62 6.52 9.45a10 10 0 0 0 6.42 2.63h1.85a1 1 0 0 0 .27-.1v-.1c0-.26 0-2.6 1.58-3l.38-.1Z" fill="#192144"></path></svg><svg viewBox="0 0 24 24" fill="none" id="youtube"><path d="m14.72 11.31-4.36-2.9a.36.36 0 0 0-.56.3v5.8a.35.35 0 0 0 .19.32.4.4 0 0 0 .17.05c.07 0 .14-.02.2-.06l4.36-2.9a.35.35 0 0 0 0-.6Zm-4.2 2.53v-4.45l3.34 2.22-3.34 2.23Zm10.4-7.42a1.85 1.85 0 0 0-1.1-1.23c-3.07-1.18-8-1.16-8.2-1.16-.22 0-5.14-.02-8.2 1.16a1.85 1.85 0 0 0-1.1 1.23c-.23.88-.5 2.5-.5 5.2 0 2.69.27 4.3.5 5.18a1.85 1.85 0 0 0 1.1 1.24c3.06 1.18 7.98 1.16 8.2 1.16h.06c.62 0 5.22-.04 8.13-1.16a1.85 1.85 0 0 0 1.1-1.24c.23-.88.5-2.5.5-5.19 0-2.7-.27-4.3-.5-5.19Zm-.72 10.2a1.09 1.09 0 0 1-.65.74c-2.94 1.13-7.88 1.11-7.94 1.11-.05 0-5 .02-7.94-1.11a1.09 1.09 0 0 1-.65-.74c-.22-.84-.48-2.4-.48-5 0-2.62.26-4.17.48-5.02a1.09 1.09 0 0 1 .65-.73c2.94-1.13 7.89-1.12 7.94-1.12.06 0 5-.01 7.94 1.12a1.09 1.09 0 0 1 .65.73c.22.85.49 2.4.49 5.01 0 2.62-.27 4.17-.49 5.01Z" fill="#000"></path></svg></svg>